<svg width="256" height="256" viewBox="0 0 256 256" fill="none" xmlns="http://www.w3.org/2000/svg">
<g id="ph:shower-fill">
<path id="Vector" d="M64 236C64 238.373 63.2962 240.693 61.9776 242.667C60.6591 244.64 58.7849 246.178 56.5922 247.087C54.3995 247.995 51.9867 248.232 49.6589 247.769C47.3311 247.306 45.193 246.164 43.5147 244.485C41.8365 242.807 40.6936 240.669 40.2306 238.341C39.7676 236.013 40.0052 233.601 40.9134 231.408C41.8217 229.215 43.3598 227.341 45.3332 226.022C47.3066 224.704 49.6266 224 52 224C55.1826 224 58.2349 225.264 60.4853 227.515C62.7357 229.765 64 232.817 64 236ZM84 192C81.6266 192 79.3066 192.704 77.3332 194.022C75.3598 195.341 73.8217 197.215 72.9135 199.408C72.0052 201.601 71.7676 204.013 72.2306 206.341C72.6936 208.669 73.8365 210.807 75.5147 212.485C77.193 214.164 79.3311 215.306 81.6589 215.769C83.9867 216.232 86.3995 215.995 88.5922 215.087C90.7849 214.178 92.6591 212.64 93.9776 210.667C95.2962 208.693 96 206.373 96 204C96 200.817 94.7357 197.765 92.4853 195.515C90.2349 193.264 87.1826 192 84 192ZM20 192C17.6266 192 15.3066 192.704 13.3332 194.022C11.3598 195.341 9.8217 197.215 8.91345 199.408C8.0052 201.601 7.76756 204.013 8.23058 206.341C8.6936 208.669 9.83649 210.807 11.5147 212.485C13.193 214.164 15.3312 215.306 17.6589 215.769C19.9867 216.232 22.3995 215.995 24.5922 215.087C26.7849 214.178 28.6591 212.64 29.9776 210.667C31.2962 208.693 32 206.373 32 204C32 200.817 30.7357 197.765 28.4853 195.515C26.2349 193.264 23.1826 192 20 192ZM52 160C49.6266 160 47.3066 160.704 45.3332 162.022C43.3598 163.341 41.8217 165.215 40.9134 167.408C40.0052 169.601 39.7676 172.013 40.2306 174.341C40.6936 176.669 41.8365 178.807 43.5147 180.485C45.193 182.164 47.3311 183.306 49.6589 183.769C51.9867 184.232 54.3995 183.995 56.5922 183.087C58.7849 182.178 60.6591 180.64 61.9776 178.667C63.2962 176.693 64 174.373 64 172C64 168.817 62.7357 165.765 60.4853 163.515C58.2349 161.264 55.1826 160 52 160ZM248 32H219.31C217.208 31.9933 215.126 32.4045 213.184 33.2096C211.243 34.0147 209.48 35.1978 208 36.69L180.14 64.54L53.38 86.19C50.4789 86.6718 47.7666 87.9439 45.5412 89.8665C43.3158 91.7891 41.6634 94.2878 40.7654 97.0882C39.8674 99.8887 39.7586 102.882 40.451 105.741C41.1433 108.599 42.61 111.211 44.69 113.29L142.69 211.29C144.767 213.367 147.376 214.832 150.231 215.524C153.086 216.216 156.076 216.109 158.874 215.215C161.672 214.32 164.169 212.673 166.093 210.453C168.017 208.233 169.292 205.527 169.78 202.63L191.46 75.86L219.31 48H248C250.122 48 252.157 47.1571 253.657 45.6569C255.157 44.1566 256 42.1217 256 40C256 37.8783 255.157 35.8434 253.657 34.3432C252.157 32.8429 250.122 32 248 32Z" fill="white"/>
</g>
</svg>
