<svg width="23" height="23" viewBox="0 0 23 23" fill="none" xmlns="http://www.w3.org/2000/svg">
<g id="ic:outline-shopping-cart">
<path id="Vector" d="M13.9437 10.5417C14.6625 10.5417 15.295 10.1488 15.6208 9.55458L19.0517 3.335C19.1324 3.18974 19.1739 3.02591 19.1719 2.85972C19.1699 2.69353 19.1245 2.53074 19.0403 2.38746C18.9561 2.24418 18.8359 2.12537 18.6917 2.0428C18.5474 1.96023 18.3841 1.91675 18.2179 1.91667H4.03458L3.13375 0H0V1.91667H1.91667L5.36667 9.19042L4.07292 11.5287C3.37333 12.8129 4.29333 14.375 5.75 14.375H17.25V12.4583H5.75L6.80417 10.5417H13.9437ZM4.945 3.83333H16.5887L13.9437 8.625H7.21625L4.945 3.83333ZM5.75 15.3333C4.69583 15.3333 3.84292 16.1958 3.84292 17.25C3.84292 18.3042 4.69583 19.1667 5.75 19.1667C6.80417 19.1667 7.66667 18.3042 7.66667 17.25C7.66667 16.1958 6.80417 15.3333 5.75 15.3333ZM15.3333 15.3333C14.2792 15.3333 13.4262 16.1958 13.4262 17.25C13.4262 18.3042 14.2792 19.1667 15.3333 19.1667C16.3875 19.1667 17.25 18.3042 17.25 17.25C17.25 16.1958 16.3875 15.3333 15.3333 15.3333Z" fill="white"/>
</g>
</svg>
