<svg width="26" height="25" viewBox="0 0 26 25" fill="none" xmlns="http://www.w3.org/2000/svg">
<g id="bi:people-circle" clip-path="url(#clip0_194_21)">
<g id="Group">
<path id="Vector" d="M17.875 9.375C17.875 10.6182 17.3614 11.8105 16.4471 12.6896C15.5329 13.5686 14.2929 14.0625 13 14.0625C11.7071 14.0625 10.4671 13.5686 9.55285 12.6896C8.63861 11.8105 8.125 10.6182 8.125 9.375C8.125 8.1318 8.63861 6.93951 9.55285 6.06044C10.4671 5.18136 11.7071 4.6875 13 4.6875C14.2929 4.6875 15.5329 5.18136 16.4471 6.06044C17.3614 6.93951 17.875 8.1318 17.875 9.375Z" fill="white"/>
<path id="Vector_2" fill-rule="evenodd" clip-rule="evenodd" d="M0 12.5C0 9.18479 1.36964 6.00537 3.80761 3.66117C6.24558 1.31696 9.55219 0 13 0C16.4478 0 19.7544 1.31696 22.1924 3.66117C24.6304 6.00537 26 9.18479 26 12.5C26 15.8152 24.6304 18.9946 22.1924 21.3388C19.7544 23.683 16.4478 25 13 25C9.55219 25 6.24558 23.683 3.80761 21.3388C1.36964 18.9946 0 15.8152 0 12.5ZM13 1.5625C10.8579 1.56261 8.75935 2.14432 6.9459 3.24067C5.13246 4.33702 3.67783 5.90345 2.74944 7.75968C1.82105 9.6159 1.45663 11.6865 1.69812 13.7331C1.93962 15.7796 2.77721 17.7191 4.1145 19.3281C5.26825 17.5406 7.80813 15.625 13 15.625C18.1919 15.625 20.7301 17.5391 21.8855 19.3281C23.2228 17.7191 24.0604 15.7796 24.3019 13.7331C24.5434 11.6865 24.179 9.6159 23.2506 7.75968C22.3222 5.90345 20.8675 4.33702 19.0541 3.24067C17.2407 2.14432 15.1421 1.56261 13 1.5625Z" fill="white"/>
</g>
</g>
<defs>
<clipPath id="clip0_194_21">
<rect width="26" height="25" fill="white"/>
</clipPath>
</defs>
</svg>
